<svg width="506" height="5914" viewBox="0 0 506 5914" fill="none" xmlns="http://www.w3.org/2000/svg">
<path d="M3.00014 42.9238C2.94723 29.6159 18.0478 3 78.8731 3C154.905 3 208.873 146.543 336.333 137.095C438.302 129.537 489.931 71.1651 503 42.9238" stroke="#00CCFF" stroke-width="5" stroke-linecap="round"/>
<path d="M3 5910.6C32.976 5846.14 104.079 5731.89 148.683 5790.6C204.439 5863.98 162.173 5910.6 280.428 5910.6C398.683 5910.6 447.694 5670.6 503 5790.6" stroke="#6600FF" stroke-width="5" stroke-linecap="round"/>
<path d="M3.00004 47.3452C2.96989 33.9985 18.1129 7.31621 78.9259 7.3607C154.942 7.41631 208.838 150.886 336.291 141.445C438.271 133.893 489.899 75.3832 503 47.2542" stroke="#00CCFF" stroke-width="5" stroke-linecap="round"/>
<path d="M3 52.8336C2.9981 39.4387 18.1937 12.674 78.9916 12.7737C154.989 12.8984 208.794 156.277 336.238 146.845C438.234 139.3 489.859 80.6192 503 52.6297" stroke="#00CCFF" stroke-width="5" stroke-linecap="round"/>
<path d="M3 59.389C3.03184 45.9367 18.2904 19.0736 79.07 19.2392C155.045 19.4463 208.741 162.716 336.175 153.295C438.19 145.758 489.812 86.8733 503 59.0504" stroke="#00CBFF" stroke-width="5" stroke-linecap="round"/>
<path d="M3 67.0117C3.07107 53.4926 18.4028 26.515 79.1612 26.7573C155.109 27.0603 208.68 170.203 336.102 160.794C438.138 153.267 489.757 94.1455 503 66.5163" stroke="#00CBFF" stroke-width="5" stroke-linecap="round"/>
<path d="M3 75.7018C3.11579 62.1065 18.5309 34.9983 79.2652 35.3281C155.183 35.7403 208.611 178.739 336.019 169.344C438.079 161.828 489.694 102.436 503 75.0276" stroke="#01CBFF" stroke-width="5" stroke-linecap="round"/>
<path d="M3 85.4593C3.166 71.7784 18.6748 44.5237 79.3819 44.9517C155.266 45.4866 208.533 188.323 335.926 178.944C438.013 171.441 489.623 111.745 503 84.5844" stroke="#01CBFF" stroke-width="5" stroke-linecap="round"/>
<path d="M3 96.2844C3.22171 82.5087 18.8344 55.0914 79.5114 55.6283C155.358 56.2994 208.446 198.956 335.822 189.595C437.939 182.106 489.545 122.073 503 95.187" stroke="#01CAFF" stroke-width="5" stroke-linecap="round"/>
<path d="M3 108.177C3.2829 94.2973 19.0097 66.7015 79.6537 67.358C155.459 68.1786 208.351 210.638 335.708 201.296C437.858 193.822 489.459 133.419 503 106.835" stroke="#01CAFF" stroke-width="5" stroke-linecap="round"/>
<path d="M3 121.138C3.34959 107.145 19.2007 79.3542 79.8087 80.141C155.569 81.1246 208.247 223.368 335.584 214.047C437.77 206.591 489.365 145.784 503 119.53" stroke="#01C9FF" stroke-width="5" stroke-linecap="round"/>
<path d="M3 135.167C3.42177 121.051 19.4075 93.0496 79.9765 93.9776C155.688 95.1375 208.135 237.148 335.45 227.85C437.675 220.411 489.263 159.168 503 133.27" stroke="#02C9FF" stroke-width="5" stroke-linecap="round"/>
<path d="M3 150.264C3.49943 136.016 19.6301 107.788 80.1571 108.868C155.816 110.217 208.014 251.977 335.305 242.704C437.573 235.285 489.154 173.572 503 148.057" stroke="#02C8FF" stroke-width="5" stroke-linecap="round"/>
<path d="M3 166.43C3.58259 152.04 19.8683 123.569 80.3504 124.812C155.953 126.365 207.885 267.856 335.15 258.609C437.463 251.211 489.037 188.995 503 163.891" stroke="#02C8FF" stroke-width="5" stroke-linecap="round"/>
<path d="M3 183.665C3.67125 169.123 20.1223 140.394 80.5565 141.81C156.099 143.579 207.747 284.785 334.985 275.565C437.346 268.189 488.913 205.437 503 180.771" stroke="#02C7FF" stroke-width="5" stroke-linecap="round"/>
<path d="M3 201.968C3.76539 187.266 20.392 158.262 80.7753 159.862C156.255 161.862 207.6 302.763 334.81 293.573C437.222 286.221 488.78 222.9 503 198.698" stroke="#03C6FF" stroke-width="5" stroke-linecap="round"/>
<path d="M3 221.34C3.86502 206.469 20.6775 177.174 81.007 178.969C156.419 181.212 207.445 321.792 334.624 312.633C437.09 305.306 488.64 241.382 503 217.672" stroke="#03C6FF" stroke-width="5" stroke-linecap="round"/>
<path d="M3 241.782C3.97015 226.731 20.9786 197.13 81.2514 199.13C156.592 201.63 207.282 341.871 334.429 332.745C436.952 325.444 488.492 260.884 503 237.693" stroke="#03C5FF" stroke-width="5" stroke-linecap="round"/>
<path d="M3 263.293C4.08076 248.053 21.2955 218.129 81.5085 220.346C156.775 223.116 207.11 363 334.223 353.909C436.806 346.636 488.337 281.407 503 258.762" stroke="#04C4FF" stroke-width="5" stroke-linecap="round"/>
<path d="M3 285.873C4.19687 270.436 21.6282 240.173 81.7784 242.616C156.966 245.671 206.929 385.179 334.007 376.125C436.653 368.881 488.173 302.95 503 280.879" stroke="#04C4FF" stroke-width="5" stroke-linecap="round"/>
<path d="M3 309.523C4.31847 293.879 21.9766 263.261 82.0611 265.942C157.167 269.294 206.74 408.41 333.78 399.394C436.492 392.181 488.002 325.514 503 304.043" stroke="#05C3FF" stroke-width="5" stroke-linecap="round"/>
<path d="M3 334.243C4.44556 318.383 22.3407 287.394 82.3566 290.323C157.377 293.985 206.543 432.691 333.544 423.715C436.324 416.534 487.823 349.099 503 328.255" stroke="#05C2FF" stroke-width="5" stroke-linecap="round"/>
<path d="M3 360.033C4.57814 343.947 22.7205 312.571 82.6648 315.76C157.595 319.745 206.336 458.024 333.297 449.089C436.15 441.942 487.637 373.704 503 353.515" stroke="#06C1FF" stroke-width="5" stroke-linecap="round"/>
<path d="M3 386.893C4.71621 370.571 23.1161 338.793 82.9858 342.252C157.823 346.575 206.122 484.407 333.04 475.516C435.967 468.404 487.443 399.331 503 379.823" stroke="#06C0FF" stroke-width="5" stroke-linecap="round"/>
<path d="M3 414.823C4.85977 398.257 23.5274 366.06 83.3196 369.799C158.06 374.473 205.898 511.842 332.772 502.996C435.778 495.92 487.241 425.979 503 407.18" stroke="#06BFFF" stroke-width="5" stroke-linecap="round"/>
<path d="M3 443.824C5.00883 427.004 23.9544 394.372 83.6661 398.402C158.306 403.44 205.667 540.329 332.495 531.53C435.581 524.49 487.031 453.648 503 435.585" stroke="#07BEFF" stroke-width="5" stroke-linecap="round"/>
<path d="M3 473.895C5.16337 456.812 24.3972 423.728 84.0254 428.061C158.561 433.477 205.426 569.866 332.207 561.116C435.377 554.116 486.814 482.339 503 465.038" stroke="#08BDFF" stroke-width="5" stroke-linecap="round"/>
<path d="M3 505.037C5.32341 487.681 24.8557 454.131 84.3974 458.776C158.825 464.583 205.177 600.456 331.909 591.756C435.166 584.796 486.589 512.051 503 495.541" stroke="#08BCFF" stroke-width="5" stroke-linecap="round"/>
<path d="M3 537.249C5.48894 519.611 25.3299 485.578 84.7822 490.547C159.098 496.759 204.92 632.097 331.601 623.449C434.948 616.531 486.356 542.785 503 527.092" stroke="#09BBFF" stroke-width="5" stroke-linecap="round"/>
<path d="M3 570.532C5.65996 552.603 25.8199 518.071 85.1798 523.374C159.38 530.004 204.654 664.79 331.283 656.196C434.722 649.321 486.115 574.54 503 559.691" stroke="#09BAFF" stroke-width="5" stroke-linecap="round"/>
<path d="M3 604.886C5.83647 586.657 26.3255 551.609 85.5901 557.258C159.671 564.318 204.379 698.535 330.954 689.997C434.489 683.166 485.867 607.317 503 593.34" stroke="#0AB8FF" stroke-width="5" stroke-linecap="round"/>
<path d="M3 640.311C6.01847 621.772 26.847 586.193 86.0133 592.197C159.971 599.703 204.096 733.332 330.615 724.851C434.249 718.066 485.611 641.117 503 628.038" stroke="#0AB7FF" stroke-width="5" stroke-linecap="round"/>
<path d="M3 676.807C6.20596 657.948 27.3841 621.822 86.4491 628.193C160.28 636.157 203.805 769.181 330.266 760.759C434.002 754.021 485.347 675.938 503 663.784" stroke="#0BB6FF" stroke-width="5" stroke-linecap="round"/>
<path d="M3 714.374C6.39895 695.186 27.937 658.497 86.8978 665.246C160.599 673.681 203.505 806.082 329.907 797.721C433.747 791.031 485.076 711.781 503 700.58" stroke="#0CB5FF" stroke-width="5" stroke-linecap="round"/>
<path d="M3 753.012C6.59742 733.486 28.5056 696.218 87.3592 703.354C160.926 712.275 203.196 844.035 329.537 835.736C433.485 829.097 484.797 748.646 503 738.425" stroke="#0CB3FF" stroke-width="5" stroke-linecap="round"/>
<path d="M3 792.722C6.80139 772.848 29.09 734.985 87.8334 742.52C161.263 751.938 202.879 883.041 329.158 874.806C433.216 868.218 484.51 786.533 503 777.319" stroke="#0DB2FF" stroke-width="5" stroke-linecap="round"/>
<path d="M3 833.502C7.01084 813.272 29.6901 774.797 88.3203 782.742C161.608 792.672 202.553 923.098 328.768 914.929C432.94 908.394 484.215 825.443 503 817.263" stroke="#0EB0FF" stroke-width="5" stroke-linecap="round"/>
<path d="M3 875.354C7.22579 854.757 30.3059 815.655 88.82 824.02C161.963 834.476 202.219 964.208 328.368 956.107C432.656 949.626 483.913 865.374 503 858.255" stroke="#0FAFFF" stroke-width="5" stroke-linecap="round"/>
<path d="M3 918.276C7.44623 897.304 30.9375 857.559 89.3325 866.355C162.326 877.35 201.876 1006.37 327.957 998.338C432.366 991.913 483.603 906.328 503 900.297" stroke="#0FADFF" stroke-width="5" stroke-linecap="round"/>
<path d="M3 962.27C7.67216 940.914 31.5847 900.509 89.8577 909.747C162.699 921.293 201.525 1049.58 327.537 1041.62C432.068 1035.26 483.285 948.304 503 943.388" stroke="#10ACFF" stroke-width="5" stroke-linecap="round"/>
<path d="M3 1007.34C7.90359 985.585 32.2477 944.505 90.3957 954.195C163.081 966.307 201.165 1093.85 327.106 1085.96C431.762 1079.65 482.96 991.302 503 987.529" stroke="#11AAFF" stroke-width="5" stroke-linecap="round"/>
<path d="M3 1053.47C8.1405 1031.32 32.9265 989.547 90.9465 999.7C163.471 1012.39 200.796 1139.17 326.665 1131.36C431.45 1125.11 482.626 1035.32 503 1032.72" stroke="#12A9FF" stroke-width="5" stroke-linecap="round"/>
<path d="M3 1100.68C8.3829 1078.11 33.621 1035.63 91.51 1046.26C163.871 1059.54 200.419 1185.54 326.213 1177.8C431.13 1171.62 482.285 1080.36 503 1078.96" stroke="#12A7FF" stroke-width="5" stroke-linecap="round"/>
<path d="M3 1148.96C8.6308 1125.97 34.3312 1082.77 92.0863 1093.88C164.28 1107.77 200.034 1232.97 325.752 1225.31C430.803 1219.18 481.937 1126.43 503 1126.25" stroke="#13A5FF" stroke-width="5" stroke-linecap="round"/>
<path d="M3 1198.31C8.88418 1174.89 35.0571 1130.95 92.6754 1142.55C164.698 1157.06 199.64 1281.44 325.28 1273.86C430.468 1267.8 481.58 1173.52 503 1174.58" stroke="#14A4FF" stroke-width="5" stroke-linecap="round"/>
<path d="M3 1248.73C9.14306 1224.87 35.7988 1180.17 93.2772 1192.29C165.125 1207.43 199.237 1330.97 324.798 1323.47C430.127 1317.47 481.216 1221.63 503 1223.97" stroke="#15A2FF" stroke-width="5" stroke-linecap="round"/>
<path d="M3 1300.23C9.40743 1275.91 36.5562 1230.44 93.8918 1243.07C165.561 1258.86 198.826 1381.55 324.306 1374.14C429.778 1368.2 480.844 1270.76 503 1274.41" stroke="#16A0FF" stroke-width="5" stroke-linecap="round"/>
<path d="M3 1352.79C9.67729 1328.02 37.3293 1281.76 94.5192 1294.92C166.006 1311.37 198.406 1433.19 323.804 1425.86C429.422 1419.99 480.465 1320.91 503 1325.89" stroke="#179EFF" stroke-width="5" stroke-linecap="round"/>
<path d="M3 1406.43C9.95264 1381.18 38.1182 1334.12 95.1593 1347.82C166.461 1364.94 197.978 1485.87 323.291 1478.63C429.059 1472.83 480.077 1372.09 503 1378.43" stroke="#189CFF" stroke-width="5" stroke-linecap="round"/>
<path d="M3 1461.13C10.2335 1435.41 38.9228 1387.53 95.8122 1401.78C166.924 1419.58 197.541 1539.61 322.768 1532.45C428.688 1526.73 479.682 1424.29 503 1432.02" stroke="#199BFF" stroke-width="5" stroke-linecap="round"/>
<path d="M3 1516.91C10.5198 1490.7 39.7431 1441.99 96.4779 1456.79C167.396 1475.3 197.096 1594.4 322.235 1587.33C428.311 1581.68 479.28 1477.51 503 1486.65" stroke="#1A99FF" stroke-width="5" stroke-linecap="round"/>
<path d="M3 1573.76C10.8116 1547.06 40.5792 1497.49 97.1563 1512.87C167.878 1532.08 196.642 1650.24 321.692 1643.27C427.926 1637.69 478.869 1531.75 503 1542.33" stroke="#1B97FF" stroke-width="5" stroke-linecap="round"/>
<path d="M3 1631.68C11.109 1604.47 41.431 1554.04 97.8475 1569.99C168.368 1589.94 196.18 1707.14 321.138 1700.26C427.533 1694.75 478.451 1587.01 503 1599.07" stroke="#1C95FF" stroke-width="5" stroke-linecap="round"/>
<path d="M3 1690.67C11.4118 1662.95 42.2985 1611.63 98.5514 1628.18C168.868 1648.86 195.709 1765.08 320.574 1758.3C427.134 1752.87 478.025 1643.3 503 1656.85" stroke="#1D92FF" stroke-width="5" stroke-linecap="round"/>
<path d="M3 1750.74C11.7201 1722.49 43.1818 1670.27 99.2682 1687.42C169.376 1708.86 195.229 1824.08 320 1817.4C426.727 1812.05 477.592 1700.61 503 1715.68" stroke="#1E90FF" stroke-width="5" stroke-linecap="round"/>
<path d="M3 1811.87C12.0339 1783.09 44.0808 1729.95 99.9977 1747.72C169.894 1769.92 194.741 1884.14 319.416 1877.55C426.313 1872.28 477.15 1758.94 503 1775.56" stroke="#1F8EFF" stroke-width="5" stroke-linecap="round"/>
<path d="M3 1874.08C12.3531 1844.75 44.9955 1790.68 100.74 1809.07C170.42 1832.06 194.245 1945.24 318.822 1938.75C425.892 1933.56 476.701 1818.3 503 1836.49" stroke="#208CFF" stroke-width="5" stroke-linecap="round"/>
<path d="M3 1937.35C12.6779 1907.47 45.926 1852.46 101.495 1871.48C170.956 1895.26 193.74 2007.4 318.217 2001.01C425.463 1995.9 476.244 1878.67 503 1898.47" stroke="#218AFF" stroke-width="5" stroke-linecap="round"/>
<path d="M3 2001.7C13.0082 1971.26 46.8722 1915.28 102.263 1934.95C171.501 1959.54 193.226 2070.6 317.602 2064.32C425.028 2059.3 475.78 1940.07 503 1961.5" stroke="#2288FF" stroke-width="5" stroke-linecap="round"/>
<path d="M3 2067.12C13.3439 2036.1 47.8341 1979.15 103.043 1999.47C172.055 2024.88 192.704 2134.87 316.977 2128.69C424.585 2123.75 475.308 2002.49 503 2025.58" stroke="#2385FF" stroke-width="5" stroke-linecap="round"/>
<path d="M3 2133.61C13.6852 2102.01 48.8117 2044.06 103.837 2065.05C172.618 2091.3 192.173 2200.18 316.342 2194.11C424.134 2189.25 474.828 2065.93 503 2090.7" stroke="#2483FF" stroke-width="5" stroke-linecap="round"/>
<path d="M3 2201.17C14.0319 2168.98 49.8051 2110.02 104.643 2131.69C173.19 2158.78 191.634 2266.54 315.697 2260.58C423.677 2255.82 474.34 2130.4 503 2156.88" stroke="#2681FF" stroke-width="5" stroke-linecap="round"/>
<path d="M3 2269.81C14.3841 2237.02 50.8142 2177.03 105.462 2199.38C173.771 2227.33 191.086 2333.96 315.041 2328.11C423.212 2323.43 473.844 2195.88 503 2224.1" stroke="#277EFF" stroke-width="5" stroke-linecap="round"/>
<path d="M3 2339.51C14.7419 2306.11 51.8391 2245.08 106.293 2268.13C174.361 2296.96 190.53 2402.43 314.375 2396.69C422.74 2392.1 473.341 2262.39 503 2292.38" stroke="#287CFF" stroke-width="5" stroke-linecap="round"/>
<path d="M3 2410.29C15.1051 2376.27 52.8797 2314.17 107.138 2337.94C174.96 2367.65 189.965 2471.95 313.699 2466.33C422.261 2461.83 472.83 2329.92 503 2361.7" stroke="#2979FF" stroke-width="5" stroke-linecap="round"/>
<path d="M3 2482.13C15.4738 2447.49 53.936 2384.32 107.995 2408.8C175.568 2439.42 189.392 2542.53 313.012 2537.02C421.775 2532.61 472.312 2398.48 503 2432.07" stroke="#2B77FF" stroke-width="5" stroke-linecap="round"/>
<path d="M3 2555.05C15.848 2519.77 55.008 2455.5 108.865 2480.72C176.185 2512.25 188.81 2614.15 312.316 2608.76C421.281 2604.45 471.786 2468.05 503 2503.5" stroke="#2C74FF" stroke-width="5" stroke-linecap="round"/>
<path d="M3 2629.04C16.2276 2593.11 56.0958 2527.74 109.747 2553.7C176.812 2586.15 188.219 2686.83 311.609 2681.56C420.78 2677.35 471.252 2538.65 503 2575.97" stroke="#2D72FF" stroke-width="5" stroke-linecap="round"/>
<path d="M3 2704.1C16.6128 2667.51 57.1993 2601.02 110.643 2627.73C177.447 2661.13 187.62 2760.56 310.892 2755.41C420.272 2751.29 470.71 2610.26 503 2649.49" stroke="#2E6FFF" stroke-width="5" stroke-linecap="round"/>
<path d="M3 2780.23C17.0035 2742.97 58.3186 2675.34 111.551 2702.82C178.091 2737.17 187.013 2835.34 310.164 2830.32C419.756 2826.3 470.16 2682.91 503 2724.06" stroke="#306DFF" stroke-width="5" stroke-linecap="round"/>
<path d="M3 2857.43C17.3996 2819.5 59.4535 2750.71 112.472 2778.96C178.745 2814.28 186.397 2911.18 309.427 2906.28C419.234 2902.35 469.603 2756.57 503 2799.67" stroke="#316AFF" stroke-width="5" stroke-linecap="round"/>
<path d="M3 2935.7C17.8013 2897.09 60.6042 2827.13 113.406 2856.17C179.407 2892.46 185.772 2988.06 308.679 2983.29C418.704 2979.47 469.038 2831.25 503 2876.34" stroke="#3267FF" stroke-width="5" stroke-linecap="round"/>
<path d="M3 3015.04C18.2084 2975.74 61.7707 2904.59 114.352 2934.42C180.079 2971.72 185.139 3066 307.921 3061.35C418.167 3057.64 468.465 2906.96 503 2954.06" stroke="#3464FF" stroke-width="5" stroke-linecap="round"/>
<path d="M3 3095.46C18.6211 3055.45 62.9528 2983.09 115.311 3013.74C180.76 3052.04 184.497 3144.99 307.153 3140.47C417.622 3136.86 467.885 2983.69 503 3032.82" stroke="#3562FF" stroke-width="5" stroke-linecap="round"/>
<path d="M3 3176.94C19.0392 3136.22 64.1507 3062.65 116.283 3094.11C181.449 3133.43 183.847 3225.03 306.374 3220.65C417.071 3217.14 467.297 3061.44 503 3112.64" stroke="#375FFF" stroke-width="5" stroke-linecap="round"/>
<path d="M3 3259.5C19.4628 3218.06 65.3644 3143.24 117.268 3175.53C182.148 3215.89 183.188 3306.13 305.586 3301.88C416.512 3298.47 466.701 3140.21 503 3193.5" stroke="#385CFF" stroke-width="5" stroke-linecap="round"/>
<path d="M3 3343.12C19.8919 3300.95 66.5937 3224.89 118.266 3258.01C182.856 3299.42 182.521 3388.27 304.787 3384.16C415.946 3380.86 466.098 3220 503 3275.41" stroke="#3A59FF" stroke-width="5" stroke-linecap="round"/>
<path d="M3 3427.82C20.3265 3384.91 67.8388 3307.58 119.276 3341.55C183.573 3384.02 181.845 3471.47 303.978 3467.49C415.372 3464.31 465.486 3300.82 503 3358.37" stroke="#3B56FF" stroke-width="5" stroke-linecap="round"/>
<path d="M3 3513.59C20.7666 3469.93 69.0997 3391.31 120.299 3426.15C184.299 3469.69 181.161 3555.72 303.159 3551.88C414.792 3548.81 464.867 3382.65 503 3442.38" stroke="#3D53FF" stroke-width="5" stroke-linecap="round"/>
<path d="M3 3600.43C21.2122 3556.01 70.3762 3476.09 121.335 3511.8C185.034 3556.43 180.468 3641.02 302.329 3637.32C414.204 3634.36 464.241 3465.51 503 3527.44" stroke="#3E50FF" stroke-width="5" stroke-linecap="round"/>
<path d="M3 3688.34C21.6632 3643.15 71.6685 3561.92 122.384 3598.51C185.778 3644.24 179.766 3727.38 301.489 3723.82C413.609 3720.97 463.606 3549.39 503 3613.55" stroke="#404DFF" stroke-width="5" stroke-linecap="round"/>
<path d="M3 3777.32C22.1198 3731.35 72.9765 3648.79 123.445 3686.27C186.531 3733.12 179.056 3814.78 300.639 3811.37C413.006 3808.63 462.964 3634.3 503 3700.7" stroke="#414AFF" stroke-width="5" stroke-linecap="round"/>
<path d="M3 3867.37C22.5818 3820.62 74.3003 3736.7 124.519 3775.09C187.293 3823.07 178.337 3903.24 299.779 3899.97C412.397 3897.35 462.314 3720.22 503 3788.91" stroke="#4347FF" stroke-width="5" stroke-linecap="round"/>
<path d="M3 3958.49C23.0494 3910.94 75.6398 3825.67 125.606 3864.97C188.064 3914.09 177.61 3992.75 298.909 3989.63C411.78 3987.13 461.656 3807.17 503 3878.16" stroke="#4443FF" stroke-width="5" stroke-linecap="round"/>
<path d="M3 4050.69C23.5224 4002.33 76.995 3915.67 126.706 3955.9C188.845 4006.18 176.875 4083.31 298.028 4080.34C411.156 4077.96 460.991 3895.14 503 3968.47" stroke="#4640FF" stroke-width="5" stroke-linecap="round"/>
<path d="M3 4143.95C24.0009 4094.78 78.3659 4006.73 127.818 4047.89C189.634 4099.33 176.13 4174.92 297.137 4172.1C410.525 4169.84 460.318 3984.12 503 4059.82" stroke="#483DFF" stroke-width="5" stroke-linecap="round"/>
<path d="M3 4238.29C24.485 4188.29 79.7526 4098.82 128.944 4140.93C190.432 4193.56 175.378 4267.59 296.236 4264.92C409.886 4262.78 459.637 4074.14 503 4152.22" stroke="#493AFF" stroke-width="5" stroke-linecap="round"/>
<path d="M3 4333.69C24.9745 4282.86 81.155 4191.97 130.082 4235.03C191.24 4288.86 174.616 4361.3 295.325 4358.79C409.24 4356.77 458.949 4165.17 503 4245.67" stroke="#4B36FF" stroke-width="5" stroke-linecap="round"/>
<path d="M3 4430.17C25.4695 4378.5 82.5732 4286.16 131.232 4330.19C192.056 4385.22 173.847 4456.07 294.403 4453.71C408.587 4451.82 458.252 4257.22 503 4340.17" stroke="#4D33FF" stroke-width="5" stroke-linecap="round"/>
<path d="M3 4527.94C25.97 4475.42 84.0071 4381.62 132.396 4426.63C192.882 4482.89 173.068 4552.12 293.471 4549.91C407.927 4548.15 457.549 4350.53 503 4435.94" stroke="#4E30FF" stroke-width="5" stroke-linecap="round"/>
<path d="M3 4627.77C26.4759 4574.39 85.4567 4479.11 133.572 4525.11C193.717 4582.61 172.281 4650.2 292.529 4648.16C407.259 4646.52 456.837 4445.84 503 4533.75" stroke="#502CFF" stroke-width="5" stroke-linecap="round"/>
<path d="M3 4728.69C26.9874 4674.44 86.922 4577.67 134.761 4624.66C194.56 4683.41 171.486 4749.36 291.577 4747.48C406.584 4745.97 456.117 4542.19 503 4632.63" stroke="#5229FF" stroke-width="5" stroke-linecap="round"/>
<path d="M3 4830.7C27.5044 4775.56 88.4031 4677.29 135.963 4725.29C195.413 4785.3 170.682 4849.58 290.615 4847.86C405.902 4846.48 455.39 4639.58 503 4732.57" stroke="#5325FF" stroke-width="5" stroke-linecap="round"/>
<path d="M3 4933.8C28.0268 4877.77 89.8999 4777.97 137.178 4827C196.275 4888.28 169.87 4950.88 289.642 4949.32C405.213 4948.07 454.655 4738.01 503 4833.58" stroke="#5522FF" stroke-width="5" stroke-linecap="round"/>
<path d="M3 5037.98C28.5548 4981.05 91.4125 4879.71 138.405 4929.77C197.146 4992.35 169.048 5053.24 288.659 5051.85C404.517 5050.73 453.913 4837.48 503 4935.65" stroke="#571EFF" stroke-width="5" stroke-linecap="round"/>
<path d="M3 5143.25C29.0882 5085.41 92.9407 4982.52 139.645 5033.62C198.026 5097.5 168.219 5156.67 287.666 5155.45C403.813 5154.47 453.163 4937.98 503 5038.79" stroke="#591AFF" stroke-width="5" stroke-linecap="round"/>
<path d="M3 5249.61C29.6271 5190.86 94.4847 5086.38 140.898 5138.54C198.915 5203.74 167.381 5261.17 286.663 5260.11C403.102 5259.27 452.405 5039.53 503 5142.99" stroke="#5B17FF" stroke-width="5" stroke-linecap="round"/>
<path d="M3 5357.06C30.1716 5297.37 96.0445 5191.31 142.164 5244.54C199.813 5311.06 166.534 5366.74 285.649 5365.85C402.383 5365.15 451.639 5142.11 503 5248.27" stroke="#5C13FF" stroke-width="5" stroke-linecap="round"/>
<path d="M3 5465.59C30.7215 5404.97 97.6199 5297.31 143.442 5351.6C200.72 5419.48 165.679 5473.37 284.625 5472.66C401.658 5472.09 450.865 5245.73 503 5354.6" stroke="#5E0FFF" stroke-width="5" stroke-linecap="round"/>
<path d="M3 5575.21C31.2769 5513.65 99.2111 5404.36 144.733 5459.74C201.636 5528.97 164.815 5581.08 283.591 5580.54C400.925 5580.11 450.084 5350.39 503 5462" stroke="#600CFF" stroke-width="5" stroke-linecap="round"/>
<path d="M3 5685.92C31.8378 5623.4 100.818 5512.48 146.037 5568.96C202.561 5639.56 163.943 5689.85 282.547 5689.49C400.185 5689.2 449.295 5456.09 503 5570.47" stroke="#6208FF" stroke-width="5" stroke-linecap="round"/>
<path d="M3 5797.72C32.4041 5734.23 102.441 5621.66 147.354 5679.24C203.496 5751.23 163.062 5799.69 281.493 5799.51C399.438 5799.37 448.499 5562.83 503 5680" stroke="#6404FF" stroke-width="5" stroke-linecap="round"/>
</svg>
